<svg xmlns="http://www.w3.org/2000/svg" viewBox="0 0 533.5 544.3" width="24" height="24">  <path fill="#4285f4" d="M533.5 278.4c0-18.9-1.5-37-4.4-54.6H272v103.3h146.9c-6.3 33.8-25.4 62.5-54.3 81.6v67.7h87.7c51.3-47.2 81.2-117.1 81.2-197.9z"/>  <path fill="#34a853" d="M272 544.3c73.2 0 134.7-24.2 179.6-65.9l-87.7-67.7c-24.3 16.3-55.4 25.8-91.9 25.8-70.7 0-130.7-47.7-152.2-111.7H31.6v70.4c44.5 88.4 135.9 148.9 240.4 148.9z"/>  <path fill="#fbbc04" d="M119.8 324.8c-10.2-30.4-10.2-63.3 0-93.7v-70.4H31.6c-40.6 81-40.6 177.5 0 258.6l88.2-70.4z"/>  <path fill="#ea4335" d="M272 107.7c38.9 0 73.9 13.4 101.4 39.5l76-76C405.9 24.6 349.3 0 272 0 167.5 0 76.1 60.5 31.6 148.9l88.2 70.4c21.5-64 81.5-111.6 152.2-111.6z"/></svg>